<svg version="1.1" id="Layer_1" xmlns="http://www.w3.org/2000/svg" x="0" y="0" width="223.031" height="62.598" viewBox="0 0 223.031 62.598" xml:space="preserve"><path d="M30.616 7.73c-2.045 0-7.957-.075-9.018-.227l-.076 1.818c1.667.151 2.956.91 4.774 1.212.227 2.729.379 12.202.379 16.142v5.002c0 9.776-.228 18.719-.456 19.553l-.454 1.818-.228.908-.227.91.909-.076.91-.074h.379l11.974-.077c28.797 0 38.954-15.08 38.954-27.964 0-6.972-4.472-12.808-12.278-16.142-4.318-1.818-11.897-2.955-20.385-2.955-2.577 0-6.366.077-9.7.152h-5.457zm31.072 37.059c-4.926 3.484-11.671 5.379-19.022 5.379-1.213 0-4.396-.226-6.972-.909-.227-3.333-.378-14.247-.378-17.126v-2.426c0-2.577.227-14.625.378-17.733 1.213-.151 2.804-.227 4.244-.227 10.913 0 18.568 1.592 23.342 4.85 5.531 3.79 6.29 8.942 6.29 13.565 0 5.912-2.728 10.988-7.882 14.627zM170.817 48.122c-4.927-4.622-6.973-9.473-6.973-16.141 0-5.987 2.499-11.823 7.123-16.446 5.685-5.684 13.718-8.791 22.661-8.791 6.367 0 13.261.682 20.157 5.305 5.686 3.79 9.245 10.231 9.245 16.672 0 15.461-12.806 26.677-30.464 26.677-9.471 0-16.596-2.349-21.749-7.276zm43.121-15.763c0-5.304-2.123-10.382-5.988-14.248-4.167-4.168-9.851-6.441-15.99-6.441-9.169 0-19.855 4.624-19.855 17.582 0 5.078 2.274 10.307 6.29 14.247 4.396 4.396 10.307 6.82 16.599 6.82 5.985 0 10.76-1.667 14.094-5.002 3.106-3.03 4.85-7.652 4.85-12.958zM15.081 10.155c2.5-.227 3.411-.683 4.774-.834l.077-1.818c-1.213.152-6.442.227-10.004.227-2.88 0-8.564-.152-9.928-.227l.455 1.818c1.365.151 3.032.607 4.396.834.227 3.41.227 14.474.227 16.9v10.458c.076 6.214-.833 21.447-1.137 23.946l-.075.759 11.215-3.258.303-.228-.075-.381-.076-.378c-.152-.682-.303-6.29-.303-19.931V27.433c-.076-10.23.075-15.838.151-17.278zM160.737 10.231c2.046-.228 2.955-.833 4.395-.985l.457-1.743c-1.289.152-5.458.227-8.943.227-2.729 0-8.716-.152-9.928-.227l.378 1.743c2.048.152 2.88.606 4.019.909.303 2.652.378 11.443.378 15.46v2.5c-6.139-.075-23.57 0-28.723 0v-2.5c0-4.775.15-12.808.455-15.46 1.137-.227 1.971-.757 3.941-.909l.378-1.743c-1.137.152-5.379.227-8.943.227-2.65 0-7.653-.152-8.865-.227l.378 1.743c2.35.152 3.182.606 4.472.909.226 3.334.305 14.399.305 16.824v10.383c0 6.669.149 15.156 0 17.658v.228l8.562-2.577v-.229l-.075-.377c-.305-2.274-.53-11.444-.53-17.733v-2.956c2.273-.076 25.083-.985 28.722-.91v3.941c0 6.593 0 14.853-.381 16.824l-.151.759-.151.756h10.837l-.15-.833-.152-.834c-.379-1.819-.606-11.291-.606-19.855v-4.396c-.381-2.729-.306-13.641-.079-16.597zM106.173 57.672l8.639-2.577-.529-.834c0-.075-1.668-3.105-3.561-7.729-.834-1.97-2.274-5.836-3.714-9.548-1.667-4.472-3.335-8.716-3.713-9.474C102.84 26.373 93.215.607 93.139.379L92.987 0l-.152.379c-.228.606-1.364 3.486-3.031 7.882-6.063 15.762-18.415 47.743-21.674 54.337l6.821-3.411c1.288-5.379 5.684-17.884 7.654-23.265.531-1.516.91-2.502.985-2.804.076-.151.076-.303.228-.53.076-.229.378-1.289.53-1.592l11.747-.606c.455 1.212 5.305 13.338 4.244 10.457l5.834 16.825zm-20.992-29.48c1.667-4.548 4.093-10.761 5.078-12.808l4.774 12.808h-9.852z"/></svg>